PathFileType	4	(X/Y/Z)	1H_nor_med_left.trc
DataRate	CameraRate	NumFrames	NumMarkers	Units	OrigDataRate	OrigDataStartFrame	OrigNumFrames
250.00	250.00	15	18	mm	250.00	956	7640
Frame#	Time	c7	r_should	l_should	clavicle	r_upa	r_elb_l	r_elb_m	r_low	r_wri_l	r_wri_m	r_met	l_upa	l_elb_l	l_elb_m	l_low	l_wri_l	l_wri_m	l_met
	X1	Y1	Z1	X2	Y2	Z2	X3	Y3	Z3	X4	Y4	Z4	X5	Y5	Z5	X6	Y6	Z6	X7	Y7	Z7	X8	Y8	Z8	X9	Y9	Z9	X10	Y10	Z10	X11	Y11	Z11	X12	Y12	Z12	X13	Y13	Z13	X14	Y14	Z14	X15	Y15	Z15	X16	Y16	Z16	X17	Y17	Z17	X18	Y18	Z18
956	3.82000	1262.39758	1423.77454	147.68816	1304.49707	1343.82202	311.08179	1282.20874	1371.03528	-21.81444	1360.34741	1274.01672	135.06248	1300.55054	1125.60815	356.84747	1295.21509	1034.81750	371.82986	1230.25415	1011.83917	304.16376	1308.33496	900.61664	365.96802	1321.56580	773.50214	353.10175	1247.38745	778.21423	376.48349	1317.61853	709.46680	399.29929	nan	nan	nan	1306.94348	1097.20605	-146.64384	1235.15649	1069.96912	-94.12440	1367.03113	1018.74744	-86.60870	1414.85339	973.88531	7.63908	1382.13464	910.58746	-25.95087	1479.84241	920.26648	16.66116
957	3.82400	1262.29797	1423.79492	147.60280	1304.50183	1343.83215	310.95868	1281.97437	1371.10950	-21.87347	1360.21619	1274.02063	134.91263	1300.57214	1125.61377	356.73285	1295.27917	1034.84790	371.73776	1230.28271	1011.83856	304.10611	1308.37976	900.63910	365.85922	1321.64465	773.51874	353.00909	1247.47009	778.23816	376.43765	1317.72656	709.49426	399.21362	nan	nan	nan	1307.00879	1097.65796	-146.81294	1235.24695	1070.24670	-94.33675	1367.30347	1020.22662	-85.94459	1415.09155	976.11481	8.14267	1383.00598	912.46411	-24.82171	1480.53479	922.97736	17.99125
958	3.82800	1262.19788	1423.81116	147.52242	1304.49365	1343.84973	310.84219	1281.73499	1371.19250	-21.93432	1360.07739	1274.01953	134.76450	1300.88013	1125.46814	356.66019	1295.33411	1034.87549	371.64682	1230.31091	1011.83307	304.03894	1308.41992	900.65826	365.75372	1321.71826	773.53394	352.92505	1247.55017	778.25592	376.39993	1317.83276	709.52185	399.13174	nan	nan	nan	1307.07996	1098.10376	-146.97523	1235.31958	1070.52649	-94.54137	1367.66528	1021.54456	-85.54671	1414.85388	979.03204	8.27966	1383.87964	914.33490	-23.73052	1481.21509	925.70178	19.30596
959	3.83200	1262.09338	1423.82239	147.43938	1304.47656	1343.86707	310.72357	1281.49500	1371.27502	-21.99080	1359.93787	1274.02087	134.62430	1301.55139	1125.13660	356.63843	1295.37903	1034.89514	371.56052	1230.32007	1011.84210	303.97852	1308.45703	900.67590	365.65988	1321.78284	773.55658	352.83154	1247.61914	778.27051	376.36774	1317.92725	709.54785	399.05649	1293.13647	1181.57788	-123.49557	1307.16577	1098.54834	-147.14203	1235.37939	1070.81970	-94.73962	1368.09607	1022.72925	-85.35831	1414.59314	981.77130	8.31242	1384.72900	916.21436	-22.67529	1481.89795	928.43689	20.61725
960	3.83600	1261.98462	1423.83069	147.35252	1304.45129	1343.88403	310.60367	1281.25183	1371.35498	-22.05601	1359.79297	1274.02393	134.48355	1301.71790	1125.07153	356.54718	1295.42322	1034.92981	371.47934	1230.33887	1011.84167	303.92081	1308.48706	900.69336	365.57831	1321.83838	773.58423	352.75116	1247.34033	778.42255	376.74405	1318.02087	709.57831	398.98730	1293.16333	1181.69934	-123.59523	1307.26099	1098.98804	-147.31306	1235.44507	1071.10217	-94.94308	1368.59473	1023.74481	-85.36484	1415.15552	983.65039	9.24262	1385.56165	918.06494	-21.58825	1482.56323	931.18390	21.92632
961	3.84000	1261.86890	1423.83252	147.26288	1304.42664	1343.89905	310.48779	1281.00708	1371.43945	-22.11787	1359.64014	1274.02209	134.32932	1301.74585	1125.06531	356.44849	1295.45923	1034.96948	371.38910	1230.33313	1011.85059	303.86444	1308.50977	900.71271	365.49323	1321.89331	773.60590	352.68866	1246.62720	778.74200	377.62885	1318.11646	709.60687	398.91608	1293.20142	1181.84729	-123.71979	1307.36096	1099.41907	-147.48987	1235.55066	1071.37964	-95.13902	1368.97095	1025.04968	-84.97189	1414.57178	986.86932	9.06074	1386.12891	919.80157	-20.82897	1483.21143	933.93823	23.21243
962	3.84400	1261.75049	1423.82837	147.17549	1304.39771	1343.90918	310.36871	1280.76514	1371.53540	-22.17147	1359.48547	1274.01355	134.17972	1301.73755	1125.06799	356.35245	1295.48181	1034.99963	371.29547	1230.31311	1011.86395	303.81454	1308.52576	900.72675	365.40527	1321.94263	773.62213	352.61975	1246.50403	778.82672	377.82404	1318.20923	709.63586	398.84949	1293.24207	1182.00208	-123.85126	1307.46277	1099.84790	-147.66299	1235.68579	1071.66040	-95.32212	1369.27112	1026.54968	-84.32352	1414.60413	989.44965	9.44840	1386.34363	921.38293	-20.42663	1483.85339	936.68933	24.50461
963	3.84800	1261.63025	1423.83093	147.09006	1304.36328	1343.92041	310.25772	1280.52539	1371.63049	-22.22148	1359.33032	1274.01135	134.03500	1301.73645	1125.07605	356.25931	1295.50244	1035.01343	371.20926	1230.30591	1011.87311	303.75784	1308.53625	900.73181	365.31870	1321.98938	773.63470	352.54883	1246.52014	778.86951	377.85413	1318.29773	709.66577	398.78558	1293.29041	1182.15918	-123.97985	1307.57227	1100.29517	-147.81795	1235.83069	1071.93518	-95.49535	1369.65698	1027.87720	-83.89961	1414.78162	991.87000	10.00685	1387.03613	923.13721	-19.56190	1484.49817	939.44513	25.81166
964	3.85200	1261.51257	1423.83569	147.00688	1304.32507	1343.93396	310.14676	1280.28748	1371.73145	-22.27346	1359.17432	1274.00439	133.88565	1301.50281	1125.26978	356.13077	1295.52307	1035.02844	371.12195	1230.29785	1011.88434	303.70139	1308.54480	900.74640	365.22955	1322.03027	773.65088	352.47031	1246.58179	778.89380	377.83383	1318.38367	709.70154	398.72272	1293.34546	1182.32874	-124.10741	1307.69373	1100.74756	-147.95995	1235.95154	1072.20605	-95.66225	1370.07593	1029.18774	-83.54340	1414.97583	994.20660	10.66846	1387.82642	924.96350	-18.67820	1485.11719	942.21295	27.09533
965	3.85600	1261.39502	1423.84253	146.92091	1304.29285	1343.95215	310.03348	1280.04919	1371.83130	-22.32540	1359.01990	1274.00134	133.73390	1300.87756	1125.64661	355.96091	1295.53589	1035.05969	371.03033	1230.27808	1011.89996	303.65567	1308.55566	900.75183	365.13156	1322.07874	773.66815	352.39505	1246.65002	778.90680	377.79877	1318.46594	709.73657	398.65826	1293.40588	1182.50562	-124.24200	1307.82458	1101.19763	-148.09206	1236.06165	1072.48621	-95.82674	1370.49548	1030.47986	-83.21617	1415.19666	996.53906	11.33527	1388.66711	926.76294	-17.74074	1485.71594	944.98279	28.36157
966	3.86000	1261.27881	1423.85413	146.83852	1304.24988	1343.97717	309.92194	1279.81323	1371.93018	-22.37657	1358.87378	1274.00671	133.59387	1300.74304	1125.76465	355.84940	1295.55310	1035.09729	370.94754	1230.27075	1011.91089	303.60739	1308.56274	900.76080	365.03320	1322.12341	773.69489	352.32709	1246.72461	778.92706	377.75919	1318.54602	709.77478	398.59756	1293.47900	1182.68616	-124.37594	1308.29810	1101.30701	-147.91873	1236.18506	1072.75964	-95.98872	1370.96326	1031.67737	-83.03717	1415.42310	998.87762	11.96882	1389.72302	928.95483	-16.32552	1486.30054	947.75592	29.62112
967	3.86400	1261.16370	1423.86597	146.75722	1304.20398	1343.99390	309.81326	1279.57971	1372.03174	-22.42626	1358.73413	1274.02039	133.45508	1301.03442	1125.67737	355.78171	1295.57397	1035.13123	370.86993	1230.25574	1011.92084	303.55252	1308.57837	900.78381	364.94452	1322.16638	773.72382	352.24777	1246.78735	778.94910	377.71704	1318.64160	709.81055	398.53641	1293.55811	1182.87292	-124.50659	1308.87256	1101.33447	-147.67056	1236.34814	1073.01074	-96.13596	1371.44836	1032.84106	-82.87627	1415.64026	1001.26459	12.54855	1391.16333	931.71704	-14.28061	1486.86987	950.52972	30.85885
968	3.86800	1261.04907	1423.88049	146.67690	1304.15161	1344.00525	309.70319	1279.34668	1372.12988	-22.46636	1358.60266	1274.03687	133.31929	1301.40686	1125.53101	355.73111	1295.59058	1035.15491	370.77863	1230.24084	1011.92523	303.49820	1308.59912	900.80597	364.86426	1322.21240	773.75110	352.16257	1246.83704	778.97388	377.68692	1318.73315	709.84448	398.47592	1293.63110	1183.05969	-124.62753	1308.46899	1102.34668	-148.32600	1236.54138	1073.24182	-96.27065	1371.82996	1034.20886	-82.42252	1416.66748	1002.90656	13.76208	1392.12390	933.92163	-12.99279	1487.42053	953.30670	32.09008
969	3.87200	1260.93237	1423.89417	146.59825	1304.09277	1344.01917	309.59952	1279.11499	1372.22534	-22.50489	1358.48352	1274.04822	133.20671	1300.87927	1125.81177	355.57730	1295.60217	1035.17407	370.69965	1230.22839	1011.92072	303.45090	1308.61353	900.82678	364.78156	1322.25549	773.77502	352.09543	1246.89246	778.99969	377.65494	1318.81519	709.87787	398.42252	1293.70190	1183.24084	-124.73443	1308.51147	1102.93652	-148.57564	1236.70557	1073.48267	-96.39274	1372.31799	1035.28271	-82.32246	1418.67517	1003.55743	15.82752	1392.95093	935.94983	-11.84641	1487.97302	956.09497	33.31246
970	3.87600	1260.81543	1423.90503	146.52661	1304.03516	1344.03601	309.49554	1278.88550	1372.32605	-22.54585	1358.35864	1274.05859	133.09099	1300.73828	1125.90173	355.47702	1295.60974	1035.18933	370.62903	1230.21179	1011.92236	303.40176	1308.62805	900.85577	364.70844	1322.29248	773.79773	352.03815	1246.95337	779.01880	377.62033	1318.89844	709.91125	398.36688	1293.77563	1183.42163	-124.83401	1309.00525	1103.07349	-148.41594	1236.86633	1073.72302	-96.51546	1372.68018	1036.61511	-81.86972	1419.39417	1005.42389	16.86743	1393.76221	937.97375	-10.80361	1488.51245	958.89264	34.50986
